HIERARCHY
ROOT Hips
{
	OFFSET 59.912201 -6.240445 92.587402
	CHANNELS 6 Xposition Yposition Zposition Xrotation Yrotation Zrotation
	JOINT spine
	{
		OFFSET 0.000000 -0.429886 7.475601
		CHANNELS 3 Xrotation Yrotation Zrotation
		JOINT spine1
		{
			OFFSET 0.000000 -0.000002 9.923012
			CHANNELS 3 Xrotation Yrotation Zrotation
			JOINT spine2
			{
				OFFSET 0.000000 -0.000001 9.508041
				CHANNELS 3 Xrotation Yrotation Zrotation
				JOINT Neck
				{
					OFFSET 0.000000 -1.163844 24.411095
					CHANNELS 3 Xrotation Yrotation Zrotation
					JOINT Head
					{
						OFFSET 0.000000 -0.000001 7.375229
						CHANNELS 3 Xrotation Yrotation Zrotation
						End Site
						{
							OFFSET 0.000000 5.887407 17.852203
						}
					}
				}
				JOINT RightShoulder
				{
					OFFSET -4.003559 0.557467 10.267906
					CHANNELS 3 Xrotation Yrotation Zrotation
					JOINT RightArm
					{
						OFFSET 0.000000 -0.000002 13.467300
						CHANNELS 3 Xrotation Yrotation Zrotation
						JOINT RightArmRoll
						{
							OFFSET 0.000000 -0.000001 6.798584
							CHANNELS 3 Xrotation Yrotation Zrotation
							JOINT RightForeArm
							{
								OFFSET 0.000000 -0.000003 19.801804
								CHANNELS 3 Xrotation Yrotation Zrotation
								JOINT RightForeArmRoll
								{
									OFFSET 0.000000 -0.000001 7.629044
									CHANNELS 3 Xrotation Yrotation Zrotation
									JOINT RightHand
									{
										OFFSET 0.000000 -0.000002 15.309799
										CHANNELS 3 Xrotation Yrotation Zrotation
										End Site
										{
											OFFSET 0.000000 0.000000 0.100006
										}
									}
								}
							}
						}
					}
				}
				JOINT LeftShoulder
				{
					OFFSET 4.003559 0.557467 10.267906
					CHANNELS 3 Xrotation Yrotation Zrotation
					JOINT LeftArm
					{
						OFFSET 0.000000 -0.000002 13.467300
						CHANNELS 3 Xrotation Yrotation Zrotation
						JOINT LeftArmRoll
						{
							OFFSET 0.000000 -0.000001 6.798584
							CHANNELS 3 Xrotation Yrotation Zrotation
							JOINT LeftForeArm
							{
								OFFSET 0.000000 -0.000003 19.801804
								CHANNELS 3 Xrotation Yrotation Zrotation
								JOINT LeftForeArmRoll
								{
									OFFSET 0.000000 -0.000001 7.629059
									CHANNELS 3 Xrotation Yrotation Zrotation
									JOINT LeftHand
									{
										OFFSET 0.000000 -0.000002 15.309799
										CHANNELS 3 Xrotation Yrotation Zrotation
										End Site
										{
											OFFSET 0.000000 0.000000 0.100006
										}
									}
								}
							}
						}
					}
				}
			}
		}
	}
	JOINT RightUpLeg
	{
		OFFSET -6.626091 1.019270 -1.215050
		CHANNELS 3 Xrotation Yrotation Zrotation
		JOINT RightUpLegRoll
		{
			OFFSET 0.000000 -0.000003 17.951698
			CHANNELS 3 Xrotation Yrotation Zrotation
			JOINT RightLeg
			{
				OFFSET 0.000000 0.000003 -22.230400
				CHANNELS 3 Xrotation Yrotation Zrotation
				JOINT RightLegRoll
				{
					OFFSET 0.000000 -0.000003 22.303200
					CHANNELS 3 Xrotation Yrotation Zrotation
					JOINT RightFoot
					{
						OFFSET 0.000000 -0.000003 18.563599
						CHANNELS 3 Xrotation Yrotation Zrotation
						JOINT RightToeBase
						{
							OFFSET 0.000000 -0.000002 15.518295
							CHANNELS 3 Xrotation Yrotation Zrotation
							End Site
							{
								OFFSET 0.006577 0.866261 7.515381
							}
						}
					}
				}
			}
		}
	}
	JOINT LeftUpLeg
	{
		OFFSET 6.626091 1.019270 -1.215050
		CHANNELS 3 Xrotation Yrotation Zrotation
		JOINT LeftUpLegRoll
		{
			OFFSET 0.000000 -0.000003 17.951797
			CHANNELS 3 Xrotation Yrotation Zrotation
			JOINT LeftLeg
			{
				OFFSET 0.000000 -0.000004 22.230293
				CHANNELS 3 Xrotation Yrotation Zrotation
				JOINT LeftLegRoll
				{
					OFFSET 0.000000 -0.000004 22.509308
					CHANNELS 3 Xrotation Yrotation Zrotation
					JOINT LeftFoot
					{
						OFFSET 0.000000 -0.000003 18.357498
						CHANNELS 3 Xrotation Yrotation Zrotation
						JOINT LeftToeBase
						{
							OFFSET 0.000000 -0.000002 15.518295
							CHANNELS 3 Xrotation Yrotation Zrotation
							End Site
							{
								OFFSET -0.029480 0.866261 7.515381
							}
						}
					}
				}
			}
		}
	}
}
MOTION
Frames: 6
Frame Time: 0.041667
59.408905 -5.740509 92.544495 -5.600029 -2.296180 0.035965 -1.503210 0.198323 -0.125268 0.989138 0.400377 -0.248088 2.634223 0.397322 -0.252875 14.052619 16.785166 0.369464 13.768949 -13.653797 2.891634 -14.818804 -1.472356 -14.916185 -152.784174 -172.062970 -58.678019 -0.000001 -0.000000 -0.000002 55.780857 -2.249158 3.850620 0.000002 -0.000015 -3.000932 -5.000171 -7.999868 0.000040 -22.046090 28.564493 26.907278 -148.733380 197.482175 90.931271 -0.000002 -0.000023 0.000009 49.048234 -5.253933 0.880551 0.000004 -0.000001 3.007959 -5.000187 7.999431 -0.000079 -9.307930 -173.068565 2.351795 -179.999991 0.000005 -1.167001 153.394260 -0.803818 -1.246597 -0.000001 -0.000001 0.462366 69.271198 6.915519 2.048486 27.870630 -7.212903 3.540778 -1.412642 -174.267741 5.344767 -0.000005 -0.000004 -1.092220 -10.930176 3.986942 0.654978 0.000005 0.000002 -0.148675 71.272655 -6.891357 -1.969504 25.456952 7.355613 -0.000010 
59.403103 -5.737529 92.542091 -5.600213 -2.286566 0.019718 -1.502608 0.196240 -0.127025 0.991399 0.396135 -0.251468 2.636482 0.393033 -0.256205 14.045521 16.797944 0.372856 13.732179 -13.638704 2.885549 -14.814641 -1.563012 -14.915834 -152.708413 -171.976978 -58.876121 0.000002 0.000000 -0.000003 55.396813 -2.065343 3.692750 0.000003 -0.000014 -3.000911 -5.000177 -7.999868 0.000038 -22.037902 28.539922 26.896358 -148.674504 197.268800 91.030432 -0.000002 -0.000025 0.000009 48.476482 -5.362081 0.934438 0.000001 -0.000003 3.007970 -5.000188 7.999430 -0.000079 -9.310630 -173.079466 2.344314 -179.999991 0.000005 -1.167001 153.402579 -0.802093 -1.245587 -0.000001 -0.000001 0.462301 69.270283 6.915613 2.048460 27.860990 -7.213791 3.526858 -1.419861 -174.273752 5.341653 -0.000005 -0.000004 -1.092489 -10.938582 3.985925 0.655375 0.000005 0.000002 -0.148818 71.277129 -6.892238 -1.966375 25.456950 7.355613 -0.000010 
59.402004 -5.735759 92.541191 -5.600166 -2.277041 0.003868 -1.502149 0.194076 -0.128758 0.993333 0.391765 -0.254783 2.638420 0.388619 -0.259467 14.038522 16.810713 0.376092 13.694786 -13.623350 2.879178 -14.810726 -1.655614 -14.916296 -152.631000 -171.894729 -59.078575 -0.000000 -0.000000 -0.000004 55.006928 -1.879790 3.534732 0.000003 -0.000014 -3.000900 -5.000173 -7.999870 0.000040 -22.028316 28.516924 26.883244 -148.615067 197.054591 91.124231 -0.000002 -0.000025 0.000009 47.911721 -5.470397 0.985930 -0.000001 -0.000001 3.007970 -5.000188 7.999428 -0.000078 -9.313590 -173.089397 2.336775 -179.999991 0.000005 -1.167001 153.410502 -0.800353 -1.244578 -0.000000 -0.000001 0.462237 69.269456 6.915679 2.048424 27.851553 -7.214663 3.513217 -1.427416 -174.279763 5.338467 -0.000005 -0.000004 -1.092769 -10.947192 3.985023 0.655769 0.000006 0.000002 -0.148969 71.281937 -6.893146 -1.962926 25.456947 7.355613 -0.000009 
59.403805 -5.728956 92.542694 -5.599829 -2.267638 -0.011547 -1.501835 0.191816 -0.130458 0.994870 0.387241 -0.258016 2.639959 0.384051 -0.262646 14.031760 16.823755 0.379155 13.656865 -13.607717 2.872524 -14.807261 -1.749812 -14.917377 -152.551537 -171.816141 -59.285257 -0.000001 -0.000000 -0.000003 54.611392 -1.692999 3.376842 -0.000000 -0.000014 -3.000881 -5.000180 -7.999868 0.000036 -22.016898 28.496079 26.867389 -148.555057 196.840711 91.210695 -0.000002 -0.000023 0.000009 47.359015 -5.578023 1.034682 -0.000000 -0.000002 3.007981 -5.000185 7.999429 -0.000079 -9.316804 -173.100339 2.329547 -179.999991 0.000004 -1.167000 153.418097 -0.798622 -1.244576 -0.000001 -0.000001 0.462171 69.268732 6.915750 2.048382 27.842315 -7.215531 3.499907 -1.435315 -174.285773 5.335220 -0.000004 -0.000004 -1.093080 -10.956103 3.984275 0.656171 0.000005 0.000001 -0.149132 71.286896 -6.894150 -1.959484 25.456952 7.355614 -0.000009 
59.402607 -5.726258 92.546684 -5.599163 -2.258365 -0.026487 -1.501696 0.189435 -0.132119 0.995946 0.382532 -0.261154 2.641028 0.379300 -0.265726 14.025373 16.837659 0.381982 13.618436 -13.592104 2.865650 -14.803953 -1.845249 -14.919078 -152.469507 -171.741186 -59.495025 0.000001 0.000000 -0.000004 54.210327 -1.505476 3.219306 0.000003 -0.000014 -3.000869 -5.000175 -7.999868 0.000038 -22.003268 28.477804 26.848335 -148.494323 196.628032 91.287773 -0.000002 -0.000023 0.000009 46.823208 -5.684058 1.080376 0.000001 -0.000001 3.007990 -5.000188 7.999430 -0.000079 -9.320334 -173.110270 2.322311 -179.999991 0.000005 -1.167001 153.425515 -0.796890 -1.243581 -0.000000 -0.000001 0.462108 69.267920 6.915850 2.048350 27.833484 -7.216376 3.486998 -1.443602 -174.291797 5.331875 -0.000005 -0.000004 -1.093400 -10.965221 3.983712 0.656570 0.000005 0.000002 -0.149309 71.292189 -6.895210 -1.955732 25.456955 7.355614 -0.000010 
59.404705 -5.720709 92.542892 -5.598096 -2.249262 -0.040915 -1.501757 0.186918 -0.133732 0.996492 0.377608 -0.264181 2.641576 0.374337 -0.268692 14.019476 16.852503 0.384639 13.579512 -13.576702 2.858595 -14.800991 -1.941576 -14.921312 -152.384403 -171.669742 -59.707779 -0.000001 -0.000000 -0.000002 53.803808 -1.317745 3.062364 0.000001 -0.000014 -3.000858 -5.000174 -7.999869 0.000039 -21.987118 28.462754 26.825547 -148.432879 196.417676 91.353623 -0.000004 -0.000025 0.000009 46.309577 -5.787523 1.122809 0.000001 -0.000002 3.007991 -5.000184 7.999431 -0.000080 -9.324207 -173.119218 2.315092 -179.999991 0.000005 -1.167001 153.432523 -0.795142 -1.242585 -0.000001 -0.000001 0.462044 69.267305 6.915891 2.048398 27.824857 -7.217229 3.474515 -1.452303 -174.297835 5.328432 -0.000005 -0.000004 -1.093750 -10.974538 3.983359 0.656969 0.000005 0.000002 -0.149503 71.297613 -6.896334 -1.951883 25.456955 7.355612 -0.000009 
